<svg width="29" height="29" viewBox="0 0 29 29" fill="none" xmlns="http://www.w3.org/2000/svg">
<path fill-rule="evenodd" clip-rule="evenodd" d="M9.30079 23.7771C10.1338 23.7771 10.8116 24.4538 10.8116 25.2868C10.8116 26.1198 10.1338 26.7976 9.30079 26.7976C8.46779 26.7976 7.79112 26.1198 7.79112 25.2868C7.79112 24.4538 8.46779 23.7771 9.30079 23.7771ZM22.4611 23.7771C23.2953 23.7771 23.9731 24.4538 23.9731 25.2868C23.9731 26.1198 23.2953 26.7976 22.4611 26.7976C21.6281 26.7976 20.9515 26.1198 20.9515 25.2868C20.9515 24.4538 21.6281 23.7771 22.4611 23.7771ZM4.31236 4.01097L6.73902 4.43097C7.12986 4.4998 7.42735 4.82413 7.46119 5.2208L7.73536 8.48863L8.75485 8.48907C8.92121 8.48915 9.08581 8.48922 9.24866 8.48929L11.1204 8.49018C11.2695 8.49026 11.4171 8.49033 11.5629 8.49041L13.6296 8.49154C13.7594 8.49162 13.8877 8.49169 14.0144 8.49177L15.4626 8.49269C15.5774 8.49277 15.6906 8.49285 15.8025 8.49293L17.0762 8.49387C17.1768 8.49394 17.276 8.49402 17.3739 8.4941L18.4845 8.49506C18.5718 8.49514 18.6579 8.49522 18.7427 8.4953L19.4727 8.49602C19.5501 8.4961 19.6264 8.49618 19.7014 8.49627L20.5468 8.49725C20.6127 8.49733 20.6775 8.49741 20.7412 8.49749L21.455 8.49849C21.5103 8.49857 21.5646 8.49866 21.6179 8.49874L22.0716 8.4995C22.1191 8.49958 22.1657 8.49967 22.2114 8.49975L22.7167 8.50078C22.7553 8.50086 22.7931 8.50095 22.8301 8.50104L23.141 8.50181C23.1732 8.5019 23.2047 8.50199 23.2353 8.50207L23.5687 8.50313C23.5937 8.50321 23.618 8.5033 23.6417 8.50339L23.8374 8.50419C23.8573 8.50428 23.8766 8.50437 23.8953 8.50446L24.0934 8.50554C24.1077 8.50563 24.1216 8.50572 24.135 8.50581L24.2429 8.50663C24.2536 8.50672 24.2638 8.50681 24.2736 8.5069L24.3513 8.50773C24.3588 8.50782 24.366 8.50791 24.3728 8.50801L24.4257 8.50884C24.4306 8.50894 24.4353 8.50903 24.4398 8.50912L24.4732 8.50997C24.4763 8.51007 24.4791 8.51016 24.4818 8.51025L24.506 8.5114L24.5101 8.51168C24.5215 8.51275 24.5249 8.51313 24.5249 8.51313C25.1747 8.60763 25.7464 8.94713 26.136 9.4698C26.5257 9.9913 26.689 10.6341 26.5957 11.2781L25.4885 18.9291C25.2797 20.3851 24.015 21.483 22.545 21.483H9.80385C8.26735 21.483 6.96652 20.2836 6.84169 18.7495L5.77302 6.0398L4.01486 5.73647C3.53769 5.65247 3.21919 5.20097 3.30086 4.7238C3.38486 4.24663 3.84569 3.9363 4.31236 4.01097ZM8.52079 10.239L7.88236 10.2386L8.58586 18.606C8.63719 19.25 9.16335 19.733 9.80619 19.733H22.5427C23.1505 19.733 23.6697 19.2803 23.756 18.6795L24.8644 11.0273C24.89 10.8453 24.8445 10.6633 24.7337 10.5163C24.624 10.3681 24.463 10.2725 24.281 10.2468C24.2726 10.2471 24.2525 10.2474 24.2211 10.2477L24.0943 10.2484C24.0677 10.2485 24.0385 10.2486 24.0067 10.2487L23.3458 10.2497C23.2901 10.2498 23.2321 10.2498 23.1719 10.2498L21.618 10.2498C21.5313 10.2497 21.4429 10.2497 21.353 10.2497L19.5795 10.2486C19.4733 10.2485 19.3659 10.2484 19.2574 10.2483L18.2539 10.2475C18.1396 10.2474 18.0244 10.2473 17.9085 10.2472L16.8455 10.2463C16.7255 10.2462 16.6049 10.2461 16.4838 10.246L15.7516 10.2453C15.6287 10.2452 15.5055 10.2451 15.382 10.245L14.2647 10.2439C14.1401 10.2438 14.0155 10.2437 13.8908 10.2436L13.1434 10.2429C13.019 10.2428 12.8948 10.2426 12.7707 10.2425L12.0297 10.2419C11.9068 10.2417 11.7842 10.2416 11.6621 10.2415L10.5765 10.2406C10.4576 10.2405 10.3393 10.2404 10.2218 10.2403L8.84986 10.2393C8.73915 10.2392 8.62944 10.2391 8.52079 10.239ZM20.6689 12.801C21.1519 12.801 21.5439 13.193 21.5439 13.676C21.5439 14.159 21.1519 14.551 20.6689 14.551H17.4349C16.9507 14.551 16.5599 14.159 16.5599 13.676C16.5599 13.193 16.9507 12.801 17.4349 12.801H20.6689Z" fill="#252525"/>
</svg>
