<svg width="29" height="29" viewBox="0 0 29 29" fill="none" xmlns="http://www.w3.org/2000/svg">
<path fill-rule="evenodd" clip-rule="evenodd" d="M23.6465 21.7253C23.6465 25.5706 18.3732 26.0151 14.4077 26.0151L14.1239 26.0149C11.5974 26.0087 5.1665 25.8492 5.1665 21.7019C5.1665 17.9351 10.2279 17.4317 14.1632 17.4127L14.6914 17.4124C17.2178 17.4185 23.6465 17.578 23.6465 21.7253ZM14.4077 19.1621C9.4365 19.1621 6.9165 20.0161 6.9165 21.7019C6.9165 23.4029 9.4365 24.2651 14.4077 24.2651C19.3777 24.2651 21.8965 23.4111 21.8965 21.7253C21.8965 20.0243 19.3777 19.1621 14.4077 19.1621ZM14.4077 2.83298C17.8237 2.83298 20.6015 5.61198 20.6015 9.02798C20.6015 12.444 17.8237 15.2218 14.4077 15.2218H14.3703C10.9613 15.2113 8.19984 12.4311 8.21147 9.02448C8.21147 5.61198 10.9905 2.83298 14.4077 2.83298ZM14.4077 4.49898C11.9098 4.49898 9.87748 6.53015 9.87748 9.02798C9.86934 11.5176 11.8865 13.5476 14.3738 13.557L14.4077 14.39V13.557C16.9043 13.557 18.9355 11.5246 18.9355 9.02798C18.9355 6.53015 16.9043 4.49898 14.4077 4.49898Z" fill="#252525"/>
</svg>
