<svg width="29" height="29" viewBox="0 0 29 29" fill="none" xmlns="http://www.w3.org/2000/svg">
<path fill-rule="evenodd" clip-rule="evenodd" d="M14.1957 2.83333C20.4607 2.83333 25.5567 7.92933 25.5567 14.1943C25.5567 17.1501 24.4223 19.846 22.5661 21.8692L26.2186 25.5142C26.5605 25.856 26.5616 26.409 26.2198 26.7508C26.0495 26.9235 25.8243 27.0086 25.6003 27.0086C25.3775 27.0086 25.1535 26.9235 24.982 26.7532L21.2853 23.0668C19.3407 24.6241 16.8751 25.5565 14.1957 25.5565C7.93066 25.5565 2.8335 20.4593 2.8335 14.1943C2.8335 7.92933 7.93066 2.83333 14.1957 2.83333ZM14.1957 4.58333C8.8955 4.58333 4.5835 8.89417 4.5835 14.1943C4.5835 19.4945 8.8955 23.8065 14.1957 23.8065C19.4947 23.8065 23.8067 19.4945 23.8067 14.1943C23.8067 8.89417 19.4947 4.58333 14.1957 4.58333Z" fill="#252525"/>
</svg>
